<mxfile host="app.diagrams.net" modified="2020-06-23T19:44:56.980Z" agent="5.0 (Windows NT 10.0; Win64; x64) AppleWebKit/537.36 (KHTML, like Gecko) Chrome/83.0.4103.97 Safari/537.36" etag="3KTifOJVo8dJ_0p43cCG" version="13.3.1" type="github">
  <diagram id="xCTi4FPs0gtTsV_Myjtb" name="Page-1">
    <mxGraphModel dx="1038" dy="580" grid="1" gridSize="10" guides="1" tooltips="1" connect="1" arrows="1" fold="1" page="1" pageScale="1" pageWidth="850" pageHeight="1100" math="0" shadow="0">
      <root>
        <mxCell id="0" />
        <mxCell id="1" parent="0" />
        <mxCell id="156Jdp_GowWVPo0ZmZmq-1" value="GUI" style="shape=umlActor;verticalLabelPosition=bottom;labelBackgroundColor=#ffffff;verticalAlign=top;html=1;outlineConnect=0;" vertex="1" parent="1">
          <mxGeometry x="400" y="80" width="30" height="60" as="geometry" />
        </mxCell>
        <mxCell id="156Jdp_GowWVPo0ZmZmq-2" style="edgeStyle=orthogonalEdgeStyle;rounded=0;orthogonalLoop=1;jettySize=auto;html=1;" edge="1" parent="1" source="156Jdp_GowWVPo0ZmZmq-3" target="156Jdp_GowWVPo0ZmZmq-5">
          <mxGeometry relative="1" as="geometry" />
        </mxCell>
        <mxCell id="156Jdp_GowWVPo0ZmZmq-3" value="Moodipy user" style="shape=umlActor;verticalLabelPosition=bottom;labelBackgroundColor=#ffffff;verticalAlign=top;html=1;outlineConnect=0;" vertex="1" parent="1">
          <mxGeometry x="70" y="80" width="30" height="60" as="geometry" />
        </mxCell>
        <mxCell id="156Jdp_GowWVPo0ZmZmq-4" style="edgeStyle=orthogonalEdgeStyle;rounded=0;orthogonalLoop=1;jettySize=auto;html=1;" edge="1" parent="1" source="156Jdp_GowWVPo0ZmZmq-5" target="156Jdp_GowWVPo0ZmZmq-1">
          <mxGeometry relative="1" as="geometry" />
        </mxCell>
        <mxCell id="156Jdp_GowWVPo0ZmZmq-5" value="Help/doc button is clicked" style="ellipse;whiteSpace=wrap;html=1;" vertex="1" parent="1">
          <mxGeometry x="180" y="70" width="120" height="80" as="geometry" />
        </mxCell>
      </root>
    </mxGraphModel>
  </diagram>
</mxfile>
